<?xml version="1.0" standalone="no"?>
<!DOCTYPE svg PUBLIC "-//W3C//DTD SVG 20010904//EN"
 "http://www.w3.org/TR/2001/REC-SVG-20010904/DTD/svg10.dtd">
<svg version="1.0" xmlns="http://www.w3.org/2000/svg"
 width="180.000000pt" height="180.000000pt" viewBox="0 0 180.000000 180.000000"
 preserveAspectRatio="xMidYMid meet">
<metadata>
Created by potrace 1.14, written by Peter Selinger 2001-2017
</metadata>
<g transform="translate(0.000000,180.000000) scale(0.100000,-0.100000)"
fill="#000000" stroke="none">
<path d="M830 1385 c-19 -14 -38 -25 -42 -25 -5 0 -33 -16 -63 -36 -106 -71
-155 -182 -155 -354 0 -101 23 -233 41 -239 6 -2 19 -21 29 -44 l18 -40 -45
-73 c-55 -88 -69 -92 -130 -32 l-43 42 0 -57 c0 -51 -3 -58 -22 -66 -22 -7
-152 0 -161 9 -3 3 -14 23 -25 45 l-20 40 -12 -48 c-9 -33 -21 -54 -42 -68
l-29 -21 -39 31 c-21 17 -41 31 -43 31 -2 0 1 -25 9 -56 15 -65 4 -94 -33 -94
-19 0 -23 -6 -23 -29 0 -17 4 -32 9 -35 5 -3 5 -26 0 -52 -5 -26 -8 -85 -7
-131 l3 -84 29 3 c25 3 32 10 47 53 22 63 24 89 5 82 -10 -4 -16 5 -20 28 -17
91 31 180 125 228 49 25 68 29 170 32 88 3 125 8 163 24 47 21 50 21 70 4 12
-10 23 -19 25 -20 2 -2 -3 -11 -12 -21 -28 -30 -57 -105 -57 -147 0 -27 -10
-54 -30 -85 -29 -43 -47 -100 -41 -128 1 -8 -3 -20 -10 -28 -6 -8 -9 -18 -5
-22 4 -4 13 1 20 11 17 22 85 23 149 1 25 -8 58 -14 74 -12 26 4 24 6 -29 31
-31 14 -79 29 -107 33 -28 4 -51 12 -50 18 0 6 10 38 22 71 l22 60 47 3 c35 2
66 -5 120 -27 71 -30 72 -30 43 -6 -24 20 -98 48 -182 71 -7 2 -13 14 -13 26
0 30 46 128 60 128 10 0 84 -62 107 -90 31 -36 85 -122 117 -184 30 -61 35
-65 41 -44 20 61 105 188 169 251 39 37 74 66 80 64 17 -6 55 -90 56 -122 0
-29 -3 -31 -68 -48 -37 -10 -88 -31 -112 -47 -55 -36 -52 -37 25 -5 39 16 80
25 116 25 l56 0 22 -51 c32 -79 30 -86 -35 -99 -30 -6 -79 -22 -107 -35 l-52
-24 35 0 c19 -1 57 6 84 14 66 20 116 19 132 -2 41 -57 13 86 -32 159 -24 40
-34 68 -34 97 0 41 -27 109 -57 143 -13 15 -12 18 12 34 23 15 31 16 59 5 58
-24 101 -31 191 -31 98 -1 145 -14 206 -55 59 -41 80 -82 86 -170 4 -50 2 -75
-5 -75 -6 0 -13 6 -16 13 -11 22 1 -77 13 -105 8 -21 17 -28 38 -28 l28 0 1
160 c1 149 0 160 -17 160 -10 0 -25 10 -33 23 -14 20 -14 29 -1 77 8 30 13 55
12 57 -2 1 -19 -11 -38 -27 -39 -34 -51 -36 -83 -14 -16 10 -28 32 -37 66
l-12 52 -23 -46 -23 -46 -75 -7 c-101 -9 -110 -3 -107 71 l2 59 -49 -49 c-63
-61 -77 -57 -132 35 -35 59 -40 75 -32 93 6 11 13 41 17 66 3 24 14 53 23 63
14 16 18 44 21 155 5 195 -13 266 -87 338 -39 39 -123 84 -157 84 -11 0 -33 9
-50 20 -38 25 -42 25 -85 -5z m86 -40 c9 -8 25 -15 37 -15 30 0 79 -31 132
-84 57 -58 79 -127 78 -252 0 -104 -19 -157 -76 -217 -23 -25 -38 -52 -42 -78
-9 -52 0 -60 18 -18 8 19 24 43 36 53 21 19 21 19 21 -11 0 -110 -115 -233
-219 -233 -88 0 -179 84 -195 180 -6 35 0 27 20 -25 7 -19 8 -19 11 2 7 38
-16 98 -53 141 -31 37 -38 55 -52 135 -18 109 -8 198 33 275 24 46 88 103 131
116 12 4 29 15 39 26 21 24 60 26 81 5z m-217 -797 l22 -36 -38 11 c-21 6 -39
12 -41 13 -2 1 4 14 14 28 9 15 18 25 19 24 1 -2 11 -19 24 -40z m447 -16 c-4
-3 -32 -14 -62 -23 l-55 -17 40 37 c23 21 41 44 41 51 0 7 10 1 21 -14 12 -15
18 -30 15 -34z m-453 -61 c34 -15 93 -49 131 -75 38 -25 70 -46 72 -46 2 0 35
21 74 46 61 39 188 104 205 104 19 0 -4 -23 -57 -55 -77 -47 -130 -87 -186
-140 -36 -33 -45 -37 -52 -25 -5 8 -13 20 -17 25 -16 20 -109 93 -180 140 -40
26 -73 50 -73 51 0 9 25 2 83 -25z"/>
<path d="M846 1308 c-18 -26 -13 -36 9 -18 8 7 28 10 45 8 34 -5 40 6 11 22
-30 15 -48 12 -65 -12z"/>
<path d="M865 1230 c-4 -6 7 -10 25 -10 18 0 29 4 25 10 -3 6 -15 10 -25 10
-10 0 -22 -4 -25 -10z"/>
<path d="M870 1170 c0 -5 9 -10 20 -10 11 0 20 5 20 10 0 6 -9 10 -20 10 -11
0 -20 -4 -20 -10z"/>
<path d="M756 1048 c-20 -11 -21 -38 -2 -38 11 0 13 -9 9 -34 -4 -29 -2 -35
17 -41 32 -10 59 18 43 44 -11 18 -7 19 107 17 123 -1 149 6 116 30 -14 10
-48 14 -110 14 -50 0 -107 4 -127 9 -21 5 -43 4 -53 -1z"/>
<path d="M980 975 c-10 -12 -11 -21 -4 -33 15 -22 27 -24 49 -8 16 12 18 18 9
33 -15 24 -38 27 -54 8z"/>
<path d="M845 870 c-17 -19 -17 -21 -1 -39 10 -11 25 -17 37 -14 26 7 24 23
-2 20 -29 -3 -37 23 -10 30 11 3 18 9 15 14 -8 14 -19 11 -39 -11z"/>
<path d="M977 783 c4 -9 2 -14 -3 -10 -6 3 -23 -3 -40 -14 -38 -25 -99 -24
-147 1 -20 11 -37 18 -37 16 0 -2 29 -35 65 -72 l64 -68 54 50 c63 57 81 86
64 103 -16 16 -27 13 -20 -6z m-17 -43 c-12 -23 -44 -42 -54 -32 -4 3 -4 -1
-1 -9 3 -9 -1 -22 -10 -29 -13 -11 -20 -9 -45 15 -17 16 -30 31 -30 34 0 3 20
7 45 7 25 1 55 9 67 17 31 22 41 21 28 -3z"/>
<path d="M330 394 c0 -13 8 -19 26 -20 14 -1 24 -1 22 0 -2 0 -13 10 -25 20
-23 19 -23 19 -23 0z"/>
<path d="M1441 386 l-22 -23 25 4 c17 4 26 12 26 24 0 24 -2 24 -29 -5z"/>
<path d="M140 331 c0 -5 5 -22 10 -37 10 -24 12 -25 28 -11 9 8 37 21 62 28
l45 13 -45 7 c-64 11 -100 10 -100 0z"/>
<path d="M1592 329 c-77 -7 -86 -14 -30 -23 26 -4 49 -15 59 -28 16 -21 17
-21 29 16 6 21 10 38 8 40 -1 1 -31 -1 -66 -5z"/>
<path d="M104 198 c3 -13 6 -30 7 -38 0 -8 4 -4 8 10 5 17 16 27 36 30 l30 6
-34 7 c-50 10 -54 9 -47 -15z"/>
<path d="M1648 198 c22 -8 32 -17 32 -31 0 -26 5 -20 14 16 6 26 5 27 -36 26
l-43 -1 33 -10z"/>
<path d="M414 129 c-17 -19 -19 -19 -25 -2 -6 15 -8 14 -18 -10 -17 -43 -14
-117 4 -117 8 0 15 7 15 15 0 8 9 20 20 27 11 7 20 17 20 22 0 4 -9 6 -20 3
-27 -7 -25 2 11 46 32 38 26 53 -7 16z"/>
<path d="M1379 110 l32 -45 -27 -5 -27 -5 26 -14 c15 -8 27 -20 27 -28 0 -7 7
-13 15 -13 11 0 15 11 15 43 -1 41 -28 120 -29 85 -1 -24 -10 -23 -40 5 -21
18 -19 15 8 -23z"/>
</g>
</svg>
